<svg xmlns="http://www.w3.org/2000/svg" viewBox="0 0 35.47 35.47" xml:space="preserve"><path d="M35.469 18.384c0 9.104-7.406 16.512-16.512 16.512-9.078 0-16.465-7.365-16.507-16.434H0l3.669-5.506 3.669 5.506H5.201c.042 7.551 6.195 13.682 13.755 13.682 7.587 0 13.76-6.172 13.76-13.76s-6.173-13.76-13.76-13.76a1.376 1.376 0 0 1 0-2.752c9.106.001 16.513 7.408 16.513 16.512zm-16.51 10.244c-5.648 0-10.244-4.595-10.244-10.244a.458.458 0 1 0-.917 0c0 6.154 5.007 11.162 11.161 11.162 6.152 0 11.16-5.008 11.16-11.162 0-6.152-5.008-11.162-11.16-11.162a.46.46 0 0 0 0 .919c5.646 0 10.242 4.596 10.242 10.242 0 5.65-4.596 10.245-10.242 10.245zm-5.298-3.547a1.379 1.379 0 0 0 1.946 0l4.324-4.324c.259-.258.403-.606.403-.973v-7.783a1.376 1.376 0 1 0-2.752 0v7.212l-3.92 3.92a1.38 1.38 0 0 0-.001 1.948zM3.212 7.224a6.65 6.65 0 1 1 13.3 0 6.65 6.65 0 0 1-13.3 0zm2.023.094 2.969 2.968a.913.913 0 0 0 1.297 0l4.974-4.975a.917.917 0 0 0-1.297-1.297L8.852 8.338 6.532 6.02a.917.917 0 1 0-1.297 1.298z"/></svg>