<svg viewBox="144 144 512 512" xmlns="http://www.w3.org/2000/svg"><path d="M250.43 494.46V368.51a23.604 23.604 0 0 1 6.918-16.699 23.612 23.612 0 0 1 16.699-6.918h39.359v-55.105a7.87 7.87 0 0 1 7.871-7.871h86.594v-47.23h-236.16v299.14h236.16V518.08h-133.82a23.61 23.61 0 0 1-16.699-6.918 23.605 23.605 0 0 1-6.918-16.7zm47.23 94.47a7.874 7.874 0 1 1-15.746 0 7.87 7.87 0 0 1 7.871-7.871 7.874 7.874 0 0 1 7.875 7.871"/><path d="M407.87 470.85a15.536 15.536 0 0 0 10.477-4.102 7.874 7.874 0 0 1 10.535 0 15.535 15.535 0 0 0 10.477 4.102c5.625 0 10.82-3 13.633-7.871a15.747 15.747 0 0 0 0-15.746 15.74 15.74 0 0 0-13.633-7.871 15.517 15.517 0 0 0-10.477 4.101 7.874 7.874 0 0 1-10.535 0 15.516 15.516 0 0 0-10.477-4.101c-5.625 0-10.824 3-13.637 7.87a15.747 15.747 0 0 0 0 15.747 15.747 15.747 0 0 0 13.637 7.871zm0-275.53a23.617 23.617 0 0 0-23.617-23.613h-188.93a23.63 23.63 0 0 0-16.699 6.914 23.632 23.632 0 0 0-6.914 16.699v23.617h236.16zm-94.465 7.875h-47.23v-15.746h47.23zM171.71 604.67a23.63 23.63 0 0 0 6.914 16.699 23.619 23.619 0 0 0 16.7 6.918h188.93a23.619 23.619 0 0 0 23.617-23.617v-55.105H171.71zm118.08-39.359h-.004c6.266 0 12.27 2.488 16.7 6.914a23.619 23.619 0 0 1 6.917 16.7 23.604 23.604 0 0 1-6.918 16.698 23.612 23.612 0 0 1-40.312-16.699 23.63 23.63 0 0 1 6.914-16.699 23.632 23.632 0 0 1 16.7-6.914zm39.36-220.421h23.617a23.61 23.61 0 0 0 16.699-6.918 23.612 23.612 0 0 0 6.918-16.699 7.87 7.87 0 0 1 7.871-7.871h173.18a7.877 7.877 0 0 1 7.875 7.871 23.62 23.62 0 0 0 6.914 16.699 23.619 23.619 0 0 0 16.7 6.918 7.877 7.877 0 0 1 7.875 7.871v31.488a7.87 7.87 0 0 1-2.31 5.566 7.867 7.867 0 0 1-5.566 2.305 23.617 23.617 0 0 0-23.613 23.617 7.87 7.87 0 0 1-2.308 5.567 7.867 7.867 0 0 1-5.567 2.304h-55.102v15.742l110.21.004v-141.7h-283.39z"/><path d="M266.18 368.51v23.617l220.41-.004V368.51a7.877 7.877 0 0 0-7.871-7.875h-204.67a7.874 7.874 0 0 0-7.871 7.875z"/><path d="M550.36 407.87a39.458 39.458 0 0 1 30.699-30.703v-17.316a39.464 39.464 0 0 1-30.699-30.703H391.34a38.983 38.983 0 0 1-7.266 15.746h94.645a23.617 23.617 0 0 1 23.617 23.617v39.359zm-284.18 86.59a7.86 7.86 0 0 0 2.305 5.566 7.87 7.87 0 0 0 5.566 2.309h204.67a7.878 7.878 0 0 0 7.871-7.875v-86.59h-220.41zm141.7-70.848a31.077 31.077 0 0 1 15.742 4.3 31.093 31.093 0 0 1 15.746-4.3 31.491 31.491 0 0 1 27.27 47.234 31.487 31.487 0 0 1-27.27 15.742 31.087 31.087 0 0 1-15.746-4.297 31.075 31.075 0 0 1-15.742 4.297 31.488 31.488 0 1 1 0-62.976zM588.93 218.94v8.32l33.688-24.062-33.688-24.066v8.32a7.867 7.867 0 0 1-7.871 7.872h-78.72v15.746h78.72a7.867 7.867 0 0 1 7.871 7.87zm-94.47 362.11v-8.32l-33.684 24.066 33.684 24.062v-8.32a7.874 7.874 0 0 1 7.875-7.872h78.719V588.92h-78.719a7.874 7.874 0 0 1-7.875-7.87z"/></svg>